<svg xmlns="http://www.w3.org/2000/svg" width="54" height="36" viewBox="0 0 54 36">
    <path fill="#CDCDCD" fill-rule="nonzero" d="M49.172 6.367c-7.132-11.794-17.877-3.59-17.877-3.59-.697.53-1.982.967-2.855.969l-2.878.002c-.873 0-2.157-.435-2.853-.965 0 0-10.746-8.207-17.88 3.587C-2.3 18.16.573 31 .573 31c.504 3.143 2.163 5.241 5.295 4.978 3.123-.263 9.9-8.467 9.9-8.467.56-.676 1.734-1.228 2.605-1.228l17.253-.003c.872 0 2.044.552 2.603 1.228 0 0 6.78 8.204 9.907 8.467 3.127.263 4.79-1.837 5.291-4.979 0 0 2.878-12.837-4.254-24.63zm-28.655 9.6h-3.7v3.588s-.784.602-1.996.587c-1.21-.018-1.758-.657-1.758-.657v-3.518H9.569s-.436-.45-.553-1.634c-.115-1.185.482-2.143.482-2.143h3.7V8.466s.762-.41 1.857-.379a4.868 4.868 0 0 1 1.898.45l-.015 3.652h3.494s.61.789.66 1.741c.05.954-.575 2.036-.575 2.036zm16.969 4.09a2.934 2.934 0 0 1-2.926-2.947 2.932 2.932 0 0 1 2.926-2.948 2.939 2.939 0 0 1 2.93 2.948 2.94 2.94 0 0 1-2.93 2.947zm0-8.11a2.933 2.933 0 0 1-2.926-2.945 2.932 2.932 0 0 1 2.926-2.948 2.939 2.939 0 0 1 2.93 2.948 2.94 2.94 0 0 1-2.93 2.946zm7.293 4.354a2.933 2.933 0 0 1-2.927-2.947 2.932 2.932 0 0 1 2.927-2.948 2.94 2.94 0 0 1 2.929 2.948 2.94 2.94 0 0 1-2.93 2.947z"/>
</svg>
